<svg 
          width="25" 
          height="12.5" fill="none" 
          xmlns="http://www.w3.org/2000/svg">
          <path d="M 21.25 2.5 L 21.25 5 L 22.5 5 L 22.5 7.5 L 21.25 7.5 L 21.25 10 L 2.5 10 L 2.5 2.5 L 21.25 2.5 Z M 21.875 0 L 1.875 0 C 0.8394531160593033 0 0 0.8394531160593033 0 1.875 L 0 10.625 C 0 11.660546883940697 0.8394531160593033 12.5 1.875 12.5 L 21.875 12.5 C 22.910546883940697 12.5 23.75 11.660546883940697 23.75 10.625 L 23.75 10 L 24.0625 10 C 24.58027344197035 10 25 9.580273441970348 25 9.0625 L 25 3.4375 C 25 2.9197265580296516 24.58027344197035 2.5 24.0625 2.5 L 23.75 2.5 L 23.75 1.875 C 23.75 0.8394531160593033 22.910546883940697 0 21.875 0 Z M 20 3.75 L 3.75 3.75 L 3.75 8.75 L 20 8.75 L 20 3.75 Z" fill="rgb(0,0,0)"/>
        </svg>